<?xml version="1.0" encoding="UTF-8" standalone="no"?>
<!DOCTYPE svg PUBLIC "-//W3C//DTD SVG 1.1//EN" "http://www.w3.org/Graphics/SVG/1.1/DTD/svg11.dtd">
<svg xmlns="http://www.w3.org/2000/svg" version="1.1" viewBox="0.00 0.00 1448.00 1448.00">
<g stroke-width="2.00" fill="none" stroke-linecap="butt">
<path stroke="#e1eaf1" vector-effect="non-scaling-stroke" d="
  M 980.96 260.10
  Q 975.52 260.58 969.99 260.27
  Q 969.83 260.26 969.74 260.31
  A 0.08 0.08 0.0 0 0 969.77 260.46
  Q 989.87 261.63 1005.69 263.48
  C 1013.31 264.37 1017.25 266.37 1025.72 269.69
  C 1031.56 271.98 1035.00 274.89 1033.47 281.59
  Q 1031.82 288.82 1031.93 297.36
  C 1032.03 305.37 1029.27 309.91 1024.78 316.04
  Q 1021.67 320.29 1019.00 327.08
  C 1015.34 336.40 1016.47 347.48 1006.30 352.14
  C 998.11 355.89 988.84 356.19 979.75 357.18
  A 0.16 0.16 0.0 0 0 979.74 357.50
  L 983.93 358.12
  A 0.02 0.01 34.3 0 1 983.94 358.15
  Q 983.88 358.17 983.77 358.17
  Q 970.52 358.31 933.78 358.32
  Q 933.39 358.32 933.05 358.49"
/>
<path stroke="#809aaa" vector-effect="non-scaling-stroke" d="
  M 933.05 358.49
  L 836.54 358.50"
/>
<path stroke="#819eaf" vector-effect="non-scaling-stroke" d="
  M 836.54 358.50
  L 681.54 358.51"
/>
<path stroke="#87a5b8" vector-effect="non-scaling-stroke" d="
  M 681.54 358.51
  Q 520.39 358.48 359.25 358.51
  Q 353.03 358.51 349.70 363.43
  Q 348.02 365.91 347.99 370.90
  Q 347.98 371.28 347.98 379.50
  Q 347.94 506.26 347.96 633.05"
/>
<path stroke="#819eaf" vector-effect="non-scaling-stroke" d="
  M 347.96 633.05
  L 347.97 933.03"
/>
<path stroke="#809aaa" vector-effect="non-scaling-stroke" d="
  M 347.97 933.03
  L 347.96 935.93"
/>
<path stroke="#e1eaf1" vector-effect="non-scaling-stroke" d="
  M 347.96 935.93
  Q 347.11 946.99 346.34 957.99
  Q 346.00 962.91 344.65 969.83
  Q 342.65 980.16 332.99 982.92
  C 325.29 985.12 316.19 988.64 307.50 987.21
  C 304.36 986.69 298.38 984.65 294.80 987.11
  C 290.44 990.12 288.00 992.27 284.27 993.63
  Q 272.47 997.92 264.22 988.42
  C 259.61 983.12 258.10 976.05 252.46 971.43"
/>
<path stroke="#7892a1" vector-effect="non-scaling-stroke" d="
  M 348.03 1013.89
  Q 347.94 1044.63 347.98 1075.60
  C 347.99 1081.70 348.64 1085.41 353.44 1088.42
  Q 355.63 1089.79 362.89 1089.80
  Q 406.55 1089.83 450.21 1089.78"
/>
<path stroke="#d3e0eb" vector-effect="non-scaling-stroke" d="
  M 1195.57 469.52
  L 1189.90 462.39
  A 0.93 0.92 -32.6 0 0 1188.75 462.14
  Q 1187.82 462.63 1187.62 464.01
  C 1186.14 474.46 1185.48 482.26 1179.00 489.72
  C 1175.16 494.14 1172.67 497.41 1169.89 502.00
  C 1168.59 504.14 1167.37 504.43 1165.19 503.46
  Q 1159.27 500.81 1149.03 495.32
  C 1139.22 490.06 1133.79 480.79 1127.05 474.80
  C 1121.90 470.22 1115.30 466.71 1110.33 462.91
  Q 1105.24 459.03 1100.77 452.57
  A 1.47 1.45 -62.3 0 1 1100.52 451.75
  L 1100.30 425.96"
/>
<path stroke="#7892a1" vector-effect="non-scaling-stroke" d="
  M 1100.30 425.96
  Q 1100.13 398.10 1100.32 370.26
  Q 1100.37 362.71 1095.12 359.95
  Q 1092.23 358.43 1083.15 358.43
  Q 1008.09 358.47 933.05 358.49"
/>
<path stroke="#6f8c9e" vector-effect="non-scaling-stroke" d="
  M 1100.30 425.96
  L 1100.24 464.25"
/>
<path stroke="#0c374d" vector-effect="non-scaling-stroke" d="
  M 1100.24 464.25
  C 1091.37 455.79 1082.18 453.34 1070.60 451.72
  Q 1049.38 448.76 1029.39 449.00"
/>
<path stroke="#0c4d5c" vector-effect="non-scaling-stroke" d="
  M 1029.39 449.00
  Q 1020.81 439.05 1010.15 430.88"
/>
<path stroke="#1d5b6a" vector-effect="non-scaling-stroke" d="
  M 1010.15 430.88
  Q 995.27 419.92 977.19 414.16"
/>
<path stroke="#2c6675" vector-effect="non-scaling-stroke" d="
  M 977.19 414.16
  Q 952.58 406.53 926.68 410.21"
/>
<path stroke="#376d7d" vector-effect="non-scaling-stroke" d="
  M 926.68 410.21
  Q 911.78 412.20 897.78 418.32"
/>
<path stroke="#8d6c56" vector-effect="non-scaling-stroke" d="
  M 406.27 561.13
  Q 415.27 584.79 434.05 602.40"
/>
<path stroke="#825f54" vector-effect="non-scaling-stroke" d="
  M 434.05 602.40
  Q 454.52 621.46 481.75 629.03"
/>
<path stroke="#865445" vector-effect="non-scaling-stroke" d="
  M 481.75 629.03
  L 489.13 631.06"
/>
<path stroke="#7b514a" vector-effect="non-scaling-stroke" d="
  M 489.13 631.06
  L 489.22 703.95"
/>
<path stroke="#825f54" vector-effect="non-scaling-stroke" d="
  M 489.22 703.95
  L 489.22 761.16"
/>
<path stroke="#8d6c56" vector-effect="non-scaling-stroke" d="
  M 489.22 761.16
  L 489.24 785.35"
/>
<path stroke="#8a825d" vector-effect="non-scaling-stroke" d="
  M 489.24 785.35
  L 489.43 828.93"
/>
<path stroke="#8d8d74" vector-effect="non-scaling-stroke" d="
  M 489.43 828.93
  Q 489.51 829.56 488.92 829.94"
/>
<path stroke="#8d9482" vector-effect="non-scaling-stroke" d="
  M 488.92 829.94
  Q 458.64 836.03 435.79 856.42"
/>
<path stroke="#1b4a66" vector-effect="non-scaling-stroke" d="
  M 435.79 856.42
  L 422.90 867.71
  A 2.83 2.42 -8.5 0 0 422.44 868.24
  Q 415.69 878.79 410.20 885.96
  Q 404.84 892.94 399.00 896.74
  C 391.41 901.67 383.00 905.40 375.76 911.49
  Q 368.69 917.43 359.83 926.78
  C 356.92 929.86 352.93 933.65 347.97 933.03"
/>
<path stroke="#1b4a66" vector-effect="non-scaling-stroke" d="
  M 836.54 358.50
  L 820.31 359.57
  A 0.44 0.44 0.0 0 0 820.11 360.38
  C 822.95 362.07 825.23 363.32 823.35 367.18
  C 817.74 378.70 813.71 389.93 807.48 399.96
  Q 802.83 407.45 793.07 423.00
  C 787.50 431.87 781.27 446.15 778.35 451.40
  C 772.63 461.70 765.70 469.56 757.75 478.41
  C 755.11 481.35 751.20 485.92 750.43 490.01
  A 4.02 4.00 -65.8 0 0 751.91 493.93
  Q 754.88 496.22 759.62 497.49"
/>
<path stroke="#395a69" vector-effect="non-scaling-stroke" d="
  M 759.62 497.49
  L 725.05 497.70"
/>
<path stroke="#465265" vector-effect="non-scaling-stroke" d="
  M 725.05 497.70
  L 669.53 497.61"
/>
<path stroke="#5c4b61" vector-effect="non-scaling-stroke" d="
  M 669.53 497.61
  L 621.12 497.36"
/>
<path stroke="#76485c" vector-effect="non-scaling-stroke" d="
  M 621.12 497.36
  Q 617.46 482.67 610.95 469.44"
/>
<path stroke="#7f5467" vector-effect="non-scaling-stroke" d="
  M 610.95 469.44
  Q 600.23 448.50 581.64 433.59"
/>
<path stroke="#87606e" vector-effect="non-scaling-stroke" d="
  M 581.64 433.59
  Q 567.23 421.86 549.14 415.32"
/>
<path stroke="#225574" vector-effect="non-scaling-stroke" d="
  M 681.54 358.51
  L 659.82 358.86
  A 2.19 2.17 31.2 0 0 658.91 359.08
  C 645.42 366.00 632.33 379.37 623.99 386.74
  C 612.81 396.62 600.44 402.10 585.15 407.10
  Q 567.64 412.82 549.14 415.32"
/>
<path stroke="#8c6778" vector-effect="non-scaling-stroke" d="
  M 549.14 415.32
  L 534.78 411.31"
/>
<path stroke="#927474" vector-effect="non-scaling-stroke" d="
  M 534.78 411.31
  Q 510.50 406.32 486.42 411.69"
/>
<path stroke="#927d76" vector-effect="non-scaling-stroke" d="
  M 486.42 411.69
  C 438.95 422.98 404.93 461.02 399.26 509.56"
/>
<path stroke="#225574" vector-effect="non-scaling-stroke" d="
  M 399.26 509.56
  C 398.05 521.30 397.33 532.59 393.00 544.04
  Q 391.07 549.15 385.75 557.27
  C 379.15 567.36 372.51 578.23 366.24 589.82
  C 361.02 599.49 356.25 612.57 350.91 624.56
  C 349.79 627.09 348.96 630.23 347.96 633.05"
/>
<path stroke="#17425b" vector-effect="non-scaling-stroke" d="
  M 399.47 953.60
  Q 381.77 972.62 360.03 993.89
  Q 351.73 1002.02 348.03 1013.89"
/>
<path stroke="#7b96a8" vector-effect="non-scaling-stroke" d="
  M 348.03 1013.89
  L 347.96 935.93"
/>
<path stroke="#17425b" vector-effect="non-scaling-stroke" d="
  M 933.05 358.49
  Q 928.24 359.01 923.60 360.17
  C 917.95 361.57 916.97 365.85 915.31 371.17
  C 913.26 377.76 910.18 384.32 907.49 390.63
  C 903.94 398.95 900.83 409.03 897.78 418.32"
/>
<path stroke="#397183" vector-effect="non-scaling-stroke" d="
  M 897.78 418.32
  Q 861.53 434.84 842.95 470.11
  Q 837.59 480.26 835.65 487.68
  Q 833.59 495.56 832.90 497.51"
/>
<path stroke="#385665" vector-effect="non-scaling-stroke" d="
  M 832.90 497.51
  L 759.62 497.49"
/>
<path stroke="#d3e0eb" vector-effect="non-scaling-stroke" d="
  M 399.50 1187.90
  L 400.85 1187.72
  A 0.11 0.11 0.0 0 0 400.89 1187.51
  L 397.46 1185.53
  A 1.05 1.05 0.0 0 1 397.45 1183.72
  Q 399.97 1182.23 403.30 1181.72
  Q 418.60 1179.39 430.79 1176.87
  C 435.25 1175.94 439.93 1175.91 443.58 1175.56
  C 451.00 1174.84 459.73 1172.44 465.30 1167.79
  Q 468.02 1165.52 468.57 1164.32
  Q 470.20 1160.79 479.53 1146.62
  C 485.15 1138.07 484.59 1130.65 483.84 1120.30
  C 483.24 1111.93 483.52 1107.75 481.19 1101.70
  C 478.25 1094.06 471.69 1091.82 463.88 1090.43
  C 459.82 1089.71 454.80 1090.08 450.21 1089.78"
/>
<path stroke="#6f8c9e" vector-effect="non-scaling-stroke" d="
  M 450.21 1089.78
  L 532.79 1089.76"
/>
<path stroke="#678697" vector-effect="non-scaling-stroke" d="
  M 532.79 1089.76
  Q 809.37 1089.74 1085.95 1089.66
  C 1092.12 1089.66 1095.44 1089.40 1098.60 1084.81
  Q 1100.12 1082.60 1100.23 1074.46
  Q 1100.32 1068.11 1100.32 1061.75
  Q 1100.28 762.95 1100.24 464.25"
/>
<path stroke="#0c374d" vector-effect="non-scaling-stroke" d="
  M 532.79 1089.76
  L 525.36 1089.37
  A 1.32 1.29 66.5 0 1 524.55 1089.04
  Q 514.70 1080.41 509.63 1074.53
  Q 500.59 1064.06 497.49 1061.29
  C 487.07 1051.99 474.78 1046.53 462.25 1040.78"
/>
<path stroke="#7e744b" vector-effect="non-scaling-stroke" d="
  M 462.25 1040.78
  L 476.04 1046.32"
/>
<path stroke="#7b6935" vector-effect="non-scaling-stroke" d="
  M 476.04 1046.32
  L 492.52 1050.38"
/>
<path stroke="#77602e" vector-effect="non-scaling-stroke" d="
  M 492.52 1050.38
  C 542.33 1058.56 589.59 1033.65 612.15 988.88
  Q 618.14 976.99 621.20 962.71
  Q 621.27 962.35 621.62 962.16"
/>
<path stroke="#635027" vector-effect="non-scaling-stroke" d="
  M 621.62 962.16
  L 670.89 962.06"
/>
<path stroke="#77602e" vector-effect="non-scaling-stroke" d="
  M 670.89 962.06
  Q 682.87 962.15 695.00 962.12
  Q 705.14 962.09 708.95 961.30
  C 732.81 956.31 750.83 935.45 750.64 911.00
  Q 750.54 897.95 750.59 885.00"
/>
<path stroke="#5a5941" vector-effect="non-scaling-stroke" d="
  M 750.59 885.00
  L 750.65 849.26"
/>
<path stroke="#495244" vector-effect="non-scaling-stroke" d="
  M 750.65 849.26
  L 750.46 825.73"
/>
<path stroke="#778f86" vector-effect="non-scaling-stroke" d="
  M 750.46 825.73
  Q 750.70 826.16 752.29 825.90"
/>
<path stroke="#5f8376" vector-effect="non-scaling-stroke" d="
  M 752.29 825.90
  L 781.44 825.84"
/>
<path stroke="#447a95" vector-effect="non-scaling-stroke" d="
  M 781.44 825.84
  Q 799.53 826.00 817.59 825.97
  C 822.48 825.97 825.35 825.37 827.84 821.66
  Q 829.12 819.76 829.17 813.15
  Q 829.21 807.46 829.18 801.53"
/>
<path stroke="#2d6086" vector-effect="non-scaling-stroke" d="
  M 829.18 801.53
  L 829.21 756.88"
/>
<path stroke="#094872" vector-effect="non-scaling-stroke" d="
  M 829.21 756.88
  L 888.27 756.79"
/>
<path stroke="#045478" vector-effect="non-scaling-stroke" d="
  M 888.27 756.79
  Q 899.16 756.75 910.00 756.89
  Q 919.26 757.01 924.96 755.64
  Q 949.71 749.70 960.90 726.95
  Q 965.37 717.88 965.64 707.00
  Q 965.93 695.59 965.86 684.24"
/>
<path stroke="#094872" vector-effect="non-scaling-stroke" d="
  M 965.86 684.24
  L 965.88 656.29"
/>
<path stroke="#146b72" vector-effect="non-scaling-stroke" d="
  M 1010.15 430.88
  C 1005.91 462.06 995.55 491.84 977.73 517.76
  Q 965.00 536.27 949.85 551.35
  C 927.76 573.36 902.40 593.07 876.69 611.28"
/>
<path stroke="#1d5b6a" vector-effect="non-scaling-stroke" d="
  M 876.69 611.28
  Q 857.41 597.21 845.39 576.53"
/>
<path stroke="#044755" vector-effect="non-scaling-stroke" d="
  M 1029.39 449.00
  C 1032.53 453.22 1036.20 457.61 1038.76 461.70
  C 1050.55 480.53 1056.05 502.15 1055.66 524.35
  Q 1055.35 541.80 1049.07 558.94
  Q 1036.99 591.88 1008.03 612.74
  Q 1001.97 617.10 995.68 620.16
  Q 986.38 624.69 982.49 625.99
  Q 976.19 628.09 965.68 631.07
  A 1.06 1.06 0.0 0 0 964.95 632.38
  Q 965.48 634.28 965.57 636.51
  Q 965.94 646.39 965.88 656.29"
/>
<path stroke="#095e80" vector-effect="non-scaling-stroke" d="
  M 965.88 656.29
  L 922.20 645.53"
/>
<path stroke="#0c4d5c" vector-effect="non-scaling-stroke" d="
  M 922.20 645.53
  L 922.06 632.18
  A 1.26 1.25 -84.3 0 0 921.07 630.96
  Q 896.66 625.79 876.69 611.28"
/>
<path stroke="#588187" vector-effect="non-scaling-stroke" d="
  M 831.29 530.94
  C 830.64 519.66 831.36 508.70 832.90 497.51"
/>
<path stroke="#35838b" vector-effect="non-scaling-stroke" d="
  M 977.19 414.16
  C 974.92 438.38 970.07 460.57 960.18 483.12
  C 951.87 502.06 940.18 515.96 923.39 530.06
  Q 897.08 552.15 866.16 567.01
  Q 856.01 571.88 845.39 576.53"
/>
<path stroke="#2c6675" vector-effect="non-scaling-stroke" d="
  M 845.39 576.53
  C 839.01 565.20 835.36 553.90 832.37 541.28"
/>
<path stroke="#4d7a7f" vector-effect="non-scaling-stroke" d="
  M 832.37 541.28
  L 831.29 530.94"
/>
<path stroke="#4f959d" vector-effect="non-scaling-stroke" d="
  M 831.29 530.94
  Q 850.52 525.18 873.08 514.39
  C 898.65 502.16 916.75 482.18 923.45 454.21
  C 926.92 439.74 927.40 425.11 926.68 410.21"
/>
<path stroke="#f37d3f" vector-effect="non-scaling-stroke" d="
  M 533.27 767.79
  L 489.22 761.16"
/>
<path stroke="#ec652e" vector-effect="non-scaling-stroke" d="
  M 502.40 564.97
  Q 497.63 565.52 493.04 566.51
  C 484.23 568.42 479.28 573.95 474.13 581.14
  Q 461.11 599.28 453.71 613.46
  A 0.57 0.56 -58.2 0 0 453.87 614.16
  C 460.77 619.41 468.23 622.18 477.57 626.42
  Q 479.01 627.08 481.75 629.03"
/>
<path stroke="#f37d3f" vector-effect="non-scaling-stroke" d="
  M 434.05 602.40
  C 435.16 584.64 443.73 572.06 456.17 560.21
  Q 465.98 550.86 475.74 541.38"
/>
<path stroke="#e55624" vector-effect="non-scaling-stroke" d="
  M 535.05 630.24
  Q 533.01 630.31 531.01 631.04
  Q 528.10 632.11 527.09 632.12
  Q 525.11 632.14 523.20 632.64
  Q 522.58 632.80 519.29 632.88
  Q 504.20 633.22 489.13 631.06"
/>
<path stroke="#8d766d" vector-effect="non-scaling-stroke" d="
  M 398.82 523.77
  L 399.26 509.56"
/>
<path stroke="#867a52" vector-effect="non-scaling-stroke" d="
  M 533.32 828.05
  Q 532.94 828.97 533.39 829.73"
/>
<path stroke="#fac167" vector-effect="non-scaling-stroke" d="
  M 533.39 829.73
  Q 514.04 826.21 494.22 828.70
  Q 491.89 828.99 489.43 828.93"
/>
<path stroke="#f77e6e" vector-effect="non-scaling-stroke" d="
  M 534.78 411.31
  Q 527.08 428.19 520.77 445.47
  Q 517.57 454.22 514.46 459.58
  Q 507.51 471.57 500.81 483.68"
/>
<path stroke="#f98062" vector-effect="non-scaling-stroke" d="
  M 500.81 483.68
  Q 493.93 494.88 488.57 501.47
  Q 481.22 510.52 469.96 519.18"
/>
<path stroke="#fd8b56" vector-effect="non-scaling-stroke" d="
  M 469.96 519.18
  Q 458.15 527.35 451.56 530.44
  Q 446.78 532.68 442.33 533.61
  C 438.75 534.36 433.17 534.90 429.32 536.41
  C 418.07 540.82 411.60 550.73 406.27 561.13"
/>
<path stroke="#8c6d6a" vector-effect="non-scaling-stroke" d="
  M 406.27 561.13
  Q 399.13 543.13 398.82 523.77"
/>
<path stroke="#fd956d" vector-effect="non-scaling-stroke" d="
  M 398.82 523.77
  C 405.65 513.47 412.47 505.36 421.30 499.39
  C 429.94 493.55 437.16 489.10 445.88 482.58
  C 453.35 476.99 465.71 468.65 475.03 460.56
  Q 485.15 451.77 487.02 438.93
  Q 487.33 436.81 487.83 421.17
  Q 488.00 415.79 486.42 411.69"
/>
<path stroke="#faa048" vector-effect="non-scaling-stroke" d="
  M 533.22 818.81
  Q 526.44 810.67 519.29 807.56
  C 512.94 804.79 504.99 802.04 500.04 798.34
  Q 493.38 793.36 489.24 785.35"
/>
<path stroke="#8c907e" vector-effect="non-scaling-stroke" d="
  M 398.73 941.35
  C 398.08 908.90 412.01 878.14 435.79 856.42"
/>
<path stroke="#fac167" vector-effect="non-scaling-stroke" d="
  M 566.51 842.10
  C 560.33 841.10 554.71 838.43 548.97 836.95
  A 0.61 0.61 0.0 0 0 548.27 837.29
  Q 542.51 849.99 532.26 876.08
  C 516.12 917.19 483.09 949.82 442.27 966.23
  Q 427.22 972.28 426.65 972.52
  C 416.53 976.73 413.14 981.48 411.68 992.21"
/>
<path stroke="#898569" vector-effect="non-scaling-stroke" d="
  M 411.68 992.21
  Q 401.96 973.78 399.47 953.60"
/>
<path stroke="#8b8970" vector-effect="non-scaling-stroke" d="
  M 399.47 953.60
  L 398.73 941.35"
/>
<path stroke="#fed38c" vector-effect="non-scaling-stroke" d="
  M 398.73 941.35
  Q 406.74 935.78 411.11 933.35
  C 422.75 926.90 439.40 920.63 451.11 912.56
  C 479.67 892.88 490.49 864.04 488.92 829.94"
/>
<path stroke="#7a4d45" vector-effect="non-scaling-stroke" d="
  M 533.11 648.53
  L 533.23 718.76"
/>
<path stroke="#e16233" vector-effect="non-scaling-stroke" d="
  M 533.23 718.76
  Q 529.34 712.31 522.10 710.51
  Q 505.94 706.49 489.22 703.95"
/>
<path stroke="#35525e" vector-effect="non-scaling-stroke" d="
  M 832.37 541.28
  L 727.45 541.22"
/>
<path stroke="#635e64" vector-effect="non-scaling-stroke" d="
  M 727.45 541.22
  L 725.05 497.70"
/>
<path stroke="#42495a" vector-effect="non-scaling-stroke" d="
  M 727.45 541.22
  L 669.74 541.22"
/>
<path stroke="#d94e59" vector-effect="non-scaling-stroke" d="
  M 610.95 469.44
  Q 607.91 478.60 606.00 482.43
  C 597.91 498.71 583.32 509.76 568.95 519.76"
/>
<path stroke="#e45352" vector-effect="non-scaling-stroke" d="
  M 568.95 519.76
  C 566.50 514.09 563.27 509.83 556.52 510.15
  C 548.64 510.53 540.39 514.46 532.69 518.20"
/>
<path stroke="#e56550" vector-effect="non-scaling-stroke" d="
  M 532.69 518.20
  Q 520.96 520.46 508.95 518.69"
/>
<path stroke="#ec675f" vector-effect="non-scaling-stroke" d="
  M 508.95 518.69
  Q 525.78 503.35 543.74 489.25"
/>
<path stroke="#ea656b" vector-effect="non-scaling-stroke" d="
  M 581.64 433.59
  Q 564.92 463.02 543.74 489.25"
/>
<path stroke="#f47366" vector-effect="non-scaling-stroke" d="
  M 543.74 489.25
  Q 530.83 490.83 518.31 488.12
  Q 513.62 487.10 500.81 483.68"
/>
<path stroke="#864f5c" vector-effect="non-scaling-stroke" d="
  M 669.53 497.61
  Q 670.64 519.43 669.74 541.22"
/>
<path stroke="#584356" vector-effect="non-scaling-stroke" d="
  M 669.74 541.22
  L 623.75 541.22
  A 2.51 2.50 19.5 0 0 621.81 542.14
  Q 621.54 542.47 621.32 543.77"
/>
<path stroke="#b64553" vector-effect="non-scaling-stroke" d="
  M 621.12 497.36
  Q 625.22 520.42 621.32 543.77"
/>
<path stroke="#724051" vector-effect="non-scaling-stroke" d="
  M 621.32 543.77
  Q 613.43 579.11 587.54 603.30
  C 576.85 613.28 562.96 621.97 548.55 626.59"
/>
<path stroke="#e04e37" vector-effect="non-scaling-stroke" d="
  M 548.55 626.59
  C 552.03 622.87 556.32 621.07 560.45 618.64
  A 0.46 0.46 0.0 0 0 560.58 617.97
  L 547.02 600.14"
/>
<path stroke="#db4848" vector-effect="non-scaling-stroke" d="
  M 547.02 600.14
  Q 553.58 587.95 555.50 581.76
  Q 557.57 575.08 559.89 568.50
  C 562.08 562.26 565.16 556.67 567.53 551.41
  C 569.07 548.00 569.45 544.78 568.05 541.34
  C 566.61 537.79 565.28 534.49 565.90 530.54
  Q 566.65 525.73 568.95 519.76"
/>
<path stroke="#f4ac39" vector-effect="non-scaling-stroke" d="
  M 600.83 872.25
  Q 600.02 873.78 598.32 873.07
  A 0.63 0.62 30.0 0 0 597.58 873.26
  C 585.97 888.22 575.05 906.93 567.35 918.24
  C 550.02 943.69 527.56 967.18 504.09 986.99
  C 485.64 1002.56 464.65 1014.10 442.93 1025.36
  A 0.31 0.31 0.0 0 0 442.89 1025.89
  C 452.35 1032.55 460.88 1037.12 472.44 1043.31
  Q 473.55 1043.91 476.04 1046.32"
/>
<path stroke="#867a52" vector-effect="non-scaling-stroke" d="
  M 462.25 1040.78
  Q 429.06 1024.40 411.68 992.21"
/>
<path stroke="#da8815" vector-effect="non-scaling-stroke" d="
  M 621.32 918.29
  L 621.20 919.94"
/>
<path stroke="#ee981c" vector-effect="non-scaling-stroke" d="
  M 621.20 919.94
  Q 609.39 944.07 593.33 965.42
  Q 568.35 998.66 538.17 1027.90
  Q 526.52 1039.19 522.65 1041.78
  C 513.58 1047.83 503.19 1049.20 492.52 1050.38"
/>
<path stroke="#cd8728" vector-effect="non-scaling-stroke" d="
  M 750.59 885.00
  Q 738.32 886.79 726.57 889.42
  Q 713.80 892.27 706.58 903.30"
/>
<path stroke="#3276b1" vector-effect="non-scaling-stroke" d="
  M 829.17 712.37
  L 829.21 756.88"
/>
<path stroke="#6da9d4" vector-effect="non-scaling-stroke" d="
  M 829.18 801.53
  Q 819.98 801.12 810.59 801.08
  C 808.79 801.07 806.91 800.01 805.43 801.29
  A 1.37 1.34 26.3 0 1 804.45 801.61
  L 798.69 801.10"
/>
<path stroke="#3295cb" vector-effect="non-scaling-stroke" d="
  M 798.69 801.10
  L 805.35 800.98
  A 0.39 0.39 0.0 0 0 805.73 800.59
  L 805.64 657.94"
/>
<path stroke="#096aa3" vector-effect="non-scaling-stroke" d="
  M 965.86 684.24
  L 921.93 675.82"
/>
<path stroke="#d67e0e" vector-effect="non-scaling-stroke" d="
  M 670.89 962.06
  L 675.25 919.10
  A 0.57 0.57 0.0 0 1 675.77 918.59
  L 678.47 918.38"
/>
<path stroke="#d67e0e" vector-effect="non-scaling-stroke" d="
  M 621.62 962.16
  Q 621.59 961.88 621.50 961.70
  Q 621.37 961.43 621.40 961.26
  Q 624.61 944.38 622.63 926.76
  Q 622.22 923.07 621.20 919.94"
/>
<path stroke="#9fccc4" vector-effect="non-scaling-stroke" d="
  M 781.44 825.84
  Q 782.37 822.58 782.20 820.21
  Q 781.52 810.69 781.61 801.38"
/>
<path stroke="#d2e1b5" vector-effect="non-scaling-stroke" d="
  M 751.11 801.51
  C 752.48 808.98 752.63 818.08 752.29 825.90"
/>
<path stroke="#bcb083" vector-effect="non-scaling-stroke" d="
  M 750.46 825.73
  L 729.25 825.79"
/>
<path stroke="#096aa3" vector-effect="non-scaling-stroke" d="
  M 888.27 756.79
  Q 887.43 734.71 888.87 712.74"
/>
<path stroke="#9f793e" vector-effect="non-scaling-stroke" d="
  M 750.65 849.26
  Q 728.60 848.44 706.56 850.82"
/>
<path stroke="#114e79" vector-effect="non-scaling-stroke" d="
  M 922.20 645.53
  L 921.93 675.82"
/>
<path stroke="#0c5a7f" vector-effect="non-scaling-stroke" d="
  M 921.93 675.82
  Q 921.97 687.53 921.77 699.33
  C 921.68 705.13 920.81 708.35 916.31 711.19
  Q 914.13 712.57 906.91 712.59
  Q 897.83 712.61 888.87 712.74"
/>
<path stroke="#114e79" vector-effect="non-scaling-stroke" d="
  M 888.87 712.74
  L 829.17 712.37"
/>
<path stroke="#35668d" vector-effect="non-scaling-stroke" d="
  M 829.17 712.37
  L 829.17 657.27"
/>
<path stroke="#4c809c" vector-effect="non-scaling-stroke" d="
  M 829.17 657.27
  Q 829.18 650.46 829.13 644.91
  C 829.08 640.12 828.49 637.13 824.79 634.61
  Q 823.04 633.41 816.41 633.33
  Q 809.48 633.24 802.51 633.23"
/>
<path stroke="#17425b" vector-effect="non-scaling-stroke" d="
  M 802.51 633.23
  Q 789.49 621.17 785.73 617.97
  C 778.10 611.48 768.10 606.41 757.85 603.48
  Q 726.50 594.52 694.74 602.29
  C 681.31 605.57 666.12 613.27 657.88 624.31
  Q 655.10 628.03 654.71 633.27"
/>
<path stroke="#7b7183" vector-effect="non-scaling-stroke" d="
  M 654.71 633.27
  Q 647.02 633.33 639.31 633.32
  Q 632.94 633.32 630.65 639.72
  Q 629.89 641.85 630.22 648.61"
/>
<path stroke="#17425b" vector-effect="non-scaling-stroke" d="
  M 630.22 648.61
  Q 608.52 658.56 585.21 662.68
  C 568.77 665.58 551.11 667.91 534.29 665.08
  A 0.62 0.61 3.5 0 1 533.77 664.50
  L 533.11 648.53"
/>
<path stroke="#77483f" vector-effect="non-scaling-stroke" d="
  M 533.11 648.53
  L 533.17 631.86
  A 0.88 0.86 75.0 0 1 533.59 631.11
  L 535.05 630.24"
/>
<path stroke="#824b3a" vector-effect="non-scaling-stroke" d="
  M 535.05 630.24
  L 548.55 626.59"
/>
<path stroke="#7c627b" vector-effect="non-scaling-stroke" d="
  M 630.26 658.50
  L 630.29 799.33"
/>
<path stroke="#7e7689" vector-effect="non-scaling-stroke" d="
  M 630.29 799.33
  L 630.15 806.68"
/>
<path stroke="#17425b" vector-effect="non-scaling-stroke" d="
  M 630.15 806.68
  C 627.47 814.39 623.58 820.52 615.14 822.43
  C 605.91 824.52 596.29 824.50 584.25 825.40
  Q 565.42 826.81 561.05 826.66
  Q 547.32 826.20 534.09 820.98
  A 0.36 0.36 0.0 0 0 533.60 821.30
  L 533.32 828.05"
/>
<path stroke="#887e58" vector-effect="non-scaling-stroke" d="
  M 533.32 828.05
  L 533.22 818.81"
/>
<path stroke="#8b6851" vector-effect="non-scaling-stroke" d="
  M 533.22 818.81
  L 533.27 767.79"
/>
<path stroke="#815b4f" vector-effect="non-scaling-stroke" d="
  M 533.27 767.79
  L 533.23 718.76"
/>
<path stroke="#ef724c" vector-effect="non-scaling-stroke" d="
  M 508.95 518.69
  Q 492.95 530.83 475.74 541.38"
/>
<path stroke="#fa7f4e" vector-effect="non-scaling-stroke" d="
  M 475.74 541.38
  Q 472.12 530.60 469.96 519.18"
/>
<path stroke="#ea5330" vector-effect="non-scaling-stroke" d="
  M 547.02 600.14
  Q 532.42 598.38 518.74 593.02
  C 506.07 588.06 504.49 578.16 502.40 564.97"
/>
<path stroke="#e75f3f" vector-effect="non-scaling-stroke" d="
  M 502.40 564.97
  Q 508.33 555.28 513.39 550.66
  C 524.16 540.80 535.25 534.19 532.69 518.20"
/>
<path stroke="#51584b" vector-effect="non-scaling-stroke" d="
  M 706.44 825.92
  L 706.56 850.82"
/>
<path stroke="#625f48" vector-effect="non-scaling-stroke" d="
  M 706.56 850.82
  L 706.58 903.30"
/>
<path stroke="#7f6635" vector-effect="non-scaling-stroke" d="
  M 706.58 903.30
  C 706.54 905.80 706.60 908.55 705.79 910.84
  Q 703.12 918.42 695.00 918.44
  Q 686.72 918.45 678.47 918.38"
/>
<path stroke="#6b562e" vector-effect="non-scaling-stroke" d="
  M 678.47 918.38
  L 621.32 918.29"
/>
<path stroke="#836f3c" vector-effect="non-scaling-stroke" d="
  M 621.32 918.29
  Q 616.18 892.28 600.83 872.25"
/>
<path stroke="#867a52" vector-effect="non-scaling-stroke" d="
  M 600.83 872.25
  Q 586.67 853.66 566.51 842.10"
/>
<path stroke="#898569" vector-effect="non-scaling-stroke" d="
  M 566.51 842.10
  Q 551.05 833.38 533.39 829.73"
/>
<path stroke="#6da9d4" vector-effect="non-scaling-stroke" d="
  M 829.17 657.27
  L 805.64 657.94"
/>
<path stroke="#49afda" vector-effect="non-scaling-stroke" d="
  M 805.64 657.94
  Q 794.56 657.99 783.27 657.76
  Q 782.54 657.75 781.48 658.21"
/>
<path stroke="#87bca4" vector-effect="non-scaling-stroke" d="
  M 781.48 658.21
  L 780.48 657.94"
/>
<path stroke="#49afda" vector-effect="non-scaling-stroke" d="
  M 798.69 801.10
  L 782.48 801.19"
/>
<path stroke="#4ca89b" vector-effect="non-scaling-stroke" d="
  M 782.48 801.19
  Q 782.34 800.93 782.12 800.73
  A 0.92 0.92 0.0 0 1 781.82 799.93
  C 782.35 795.86 781.80 791.79 781.87 787.66
  Q 782.18 769.99 781.73 747.94
  C 781.68 745.33 782.08 741.78 782.04 738.41
  Q 781.75 715.28 781.98 692.92
  C 782.09 681.60 781.60 669.80 781.48 658.21"
/>
<path stroke="#87bca4" vector-effect="non-scaling-stroke" d="
  M 782.48 801.19
  Q 782.15 801.05 781.61 801.38"
/>
<path stroke="#a2c585" vector-effect="non-scaling-stroke" d="
  M 781.61 801.38
  L 752.75 801.14"
/>
<path stroke="#f3e5a2" vector-effect="non-scaling-stroke" d="
  M 730.42 800.90
  L 728.96 801.00"
/>
<path stroke="#fbdfa1" vector-effect="non-scaling-stroke" d="
  M 728.96 801.00
  L 717.95 800.97"
/>
<path stroke="#f1e7c4" vector-effect="non-scaling-stroke" d="
  M 728.96 801.00
  Q 730.33 813.27 729.25 825.79"
/>
<path stroke="#c4aa82" vector-effect="non-scaling-stroke" d="
  M 729.25 825.79
  L 706.44 825.92"
/>
<path stroke="#878f8b" vector-effect="non-scaling-stroke" d="
  M 706.44 825.92
  L 691.42 825.90"
/>
<path stroke="#fbd7a0" vector-effect="non-scaling-stroke" d="
  M 691.42 825.90
  Q 691.19 816.36 691.33 806.78
  Q 691.39 802.73 692.49 801.29"
/>
<path stroke="#adc565" vector-effect="non-scaling-stroke" d="
  M 753.05 658.04
  Q 752.77 660.85 752.72 662.94
  Q 752.29 680.25 752.45 691.81
  C 752.83 719.77 752.40 733.50 752.21 773.51
  Q 752.14 788.83 752.75 801.14"
/>
<path stroke="#c5d585" vector-effect="non-scaling-stroke" d="
  M 752.75 801.14
  L 751.11 801.51"
/>
<path stroke="#dce195" vector-effect="non-scaling-stroke" d="
  M 751.11 801.51
  L 730.42 800.90"
/>
<path stroke="#e6d972" vector-effect="non-scaling-stroke" d="
  M 730.42 800.90
  Q 730.38 759.62 730.34 718.42
  C 730.33 703.27 730.79 678.25 730.10 658.03"
/>
<path stroke="#f0a290" vector-effect="non-scaling-stroke" d="
  M 661.48 633.35
  Q 656.41 636.15 655.91 642.01
  Q 655.22 650.03 654.50 657.90"
/>
<path stroke="#ea8b92" vector-effect="non-scaling-stroke" d="
  M 654.50 657.90
  L 639.34 657.99"
/>
<path stroke="#e092a3" vector-effect="non-scaling-stroke" d="
  M 639.34 657.99
  L 630.26 658.50"
/>
<path stroke="#7e7689" vector-effect="non-scaling-stroke" d="
  M 630.26 658.50
  L 630.22 648.61"
/>
<path stroke="#4f85a2" vector-effect="non-scaling-stroke" d="
  M 802.51 633.23
  L 782.62 633.27"
/>
<path stroke="#6a8e83" vector-effect="non-scaling-stroke" d="
  M 782.62 633.27
  L 746.70 633.35"
/>
<path stroke="#819a93" vector-effect="non-scaling-stroke" d="
  M 746.70 633.35
  L 718.05 633.39"
/>
<path stroke="#899492" vector-effect="non-scaling-stroke" d="
  M 718.05 633.39
  L 690.72 633.41"
/>
<path stroke="#8b7268" vector-effect="non-scaling-stroke" d="
  M 690.72 633.41
  L 661.48 633.35"
/>
<path stroke="#7e7689" vector-effect="non-scaling-stroke" d="
  M 661.48 633.35
  L 654.71 633.27"
/>
<path stroke="#e87883" vector-effect="non-scaling-stroke" d="
  M 639.34 657.99
  Q 638.81 715.99 639.32 774.01
  Q 639.41 783.57 640.05 801.08"
/>
<path stroke="#e092a3" vector-effect="non-scaling-stroke" d="
  M 640.05 801.08
  Q 634.19 801.96 630.29 799.33"
/>
<path stroke="#f0a290" vector-effect="non-scaling-stroke" d="
  M 651.97 801.34
  Q 653.42 806.79 653.40 808.60
  Q 653.23 821.83 656.41 826.28
  Q 656.52 826.43 655.38 826.02
  A 0.16 0.16 0.0 0 1 655.44 825.71
  L 659.71 825.87"
/>
<path stroke="#7b7183" vector-effect="non-scaling-stroke" d="
  M 659.71 825.87
  Q 651.59 825.88 643.45 825.86
  Q 636.76 825.85 634.32 824.31
  Q 630.49 821.92 630.32 816.24
  Q 630.18 811.50 630.15 806.68"
/>
<path stroke="#896e62" vector-effect="non-scaling-stroke" d="
  M 676.80 825.88
  L 659.71 825.87"
/>
<path stroke="#898569" vector-effect="non-scaling-stroke" d="
  M 691.42 825.90
  L 676.80 825.88"
/>
<path stroke="#fdb577" vector-effect="non-scaling-stroke" d="
  M 676.80 825.88
  L 674.25 825.60
  A 0.56 0.55 -85.1 0 1 673.76 825.01
  L 675.47 801.30"
/>
<path stroke="#9fccc4" vector-effect="non-scaling-stroke" d="
  M 782.62 633.27
  C 782.32 641.24 783.01 650.37 780.48 657.94"
/>
<path stroke="#a2c585" vector-effect="non-scaling-stroke" d="
  M 780.48 657.94
  L 753.05 658.04"
/>
<path stroke="#c5d585" vector-effect="non-scaling-stroke" d="
  M 753.05 658.04
  L 747.29 657.93"
/>
<path stroke="#d2e1b5" vector-effect="non-scaling-stroke" d="
  M 746.70 633.35
  L 748.22 633.58
  A 0.88 0.87 -88.4 0 1 748.96 634.37
  L 750.85 656.92
  A 0.69 0.69 0.0 0 1 750.23 657.66
  L 747.29 657.93"
/>
<path stroke="#dce195" vector-effect="non-scaling-stroke" d="
  M 747.29 657.93
  L 730.10 658.03"
/>
<path stroke="#f3e5a2" vector-effect="non-scaling-stroke" d="
  M 730.10 658.03
  L 720.07 657.92"
/>
<path stroke="#f1e7c4" vector-effect="non-scaling-stroke" d="
  M 720.07 657.92
  Q 718.29 645.85 718.05 633.39"
/>
<path stroke="#fac967" vector-effect="non-scaling-stroke" d="
  M 718.12 658.21
  Q 717.35 676.26 717.72 694.34
  Q 717.94 704.85 717.92 715.35
  Q 717.86 758.01 717.95 800.97"
/>
<path stroke="#f8cc89" vector-effect="non-scaling-stroke" d="
  M 717.95 800.97
  L 692.49 801.29"
/>
<path stroke="#fac167" vector-effect="non-scaling-stroke" d="
  M 692.49 801.29
  Q 691.99 801.02 691.11 800.98"
/>
<path stroke="#faa048" vector-effect="non-scaling-stroke" d="
  M 691.11 800.98
  Q 691.91 796.88 691.90 792.65
  Q 691.69 727.84 691.52 663.03
  Q 691.51 661.93 690.75 658.20"
/>
<path stroke="#fbdfa1" vector-effect="non-scaling-stroke" d="
  M 720.07 657.92
  L 718.12 658.21"
/>
<path stroke="#f8cc89" vector-effect="non-scaling-stroke" d="
  M 718.12 658.21
  L 693.05 657.60"
/>
<path stroke="#fbc099" vector-effect="non-scaling-stroke" d="
  M 690.72 633.41
  Q 691.22 648.56 691.46 652.79
  Q 691.60 655.18 693.05 657.60"
/>
<path stroke="#faaa5f" vector-effect="non-scaling-stroke" d="
  M 693.05 657.60
  Q 691.84 658.14 690.75 658.20"
/>
<path stroke="#fd9458" vector-effect="non-scaling-stroke" d="
  M 690.75 658.20
  L 678.02 658.03"
/>
<path stroke="#f38756" vector-effect="non-scaling-stroke" d="
  M 678.02 658.03
  L 666.94 657.99"
/>
<path stroke="#f17658" vector-effect="non-scaling-stroke" d="
  M 666.94 657.99
  L 655.03 658.11"
/>
<path stroke="#f78871" vector-effect="non-scaling-stroke" d="
  M 655.03 658.11
  L 654.50 657.90"
/>
<path stroke="#eb5f5a" vector-effect="non-scaling-stroke" d="
  M 655.03 658.11
  Q 654.11 663.07 654.12 669.00
  Q 654.25 714.25 654.10 793.86
  Q 654.09 798.34 654.70 801.19"
/>
<path stroke="#f78871" vector-effect="non-scaling-stroke" d="
  M 654.70 801.19
  L 651.97 801.34"
/>
<path stroke="#ea8b92" vector-effect="non-scaling-stroke" d="
  M 651.97 801.34
  L 640.05 801.08"
/>
<path stroke="#e75f3f" vector-effect="non-scaling-stroke" d="
  M 666.94 657.99
  C 667.98 708.31 666.80 756.80 667.72 801.25"
/>
<path stroke="#f17658" vector-effect="non-scaling-stroke" d="
  M 667.72 801.25
  L 654.70 801.19"
/>
<path stroke="#f37d3f" vector-effect="non-scaling-stroke" d="
  M 678.02 658.03
  Q 679.43 681.81 679.50 705.55
  Q 679.65 753.34 679.73 801.19"
/>
<path stroke="#f39e5e" vector-effect="non-scaling-stroke" d="
  M 679.73 801.19
  L 675.47 801.30"
/>
<path stroke="#f38756" vector-effect="non-scaling-stroke" d="
  M 675.47 801.30
  L 667.72 801.25"
/>
<path stroke="#fdab60" vector-effect="non-scaling-stroke" d="
  M 691.11 800.98
  L 679.73 801.19"
/>
</g>
<path fill="#e6edf3" d="
  M 980.96 260.10
  Q 975.52 260.58 969.99 260.27
  Q 969.83 260.26 969.74 260.31
  A 0.08 0.08 0.0 0 0 969.77 260.46
  Q 989.87 261.63 1005.69 263.48
  C 1013.31 264.37 1017.25 266.37 1025.72 269.69
  C 1031.56 271.98 1035.00 274.89 1033.47 281.59
  Q 1031.82 288.82 1031.93 297.36
  C 1032.03 305.37 1029.27 309.91 1024.78 316.04
  Q 1021.67 320.29 1019.00 327.08
  C 1015.34 336.40 1016.47 347.48 1006.30 352.14
  C 998.11 355.89 988.84 356.19 979.75 357.18
  A 0.16 0.16 0.0 0 0 979.74 357.50
  L 983.93 358.12
  A 0.02 0.01 34.3 0 1 983.94 358.15
  Q 983.88 358.17 983.77 358.17
  Q 970.52 358.31 933.78 358.32
  Q 933.39 358.32 933.05 358.49
  L 836.54 358.50
  L 681.54 358.51
  Q 520.39 358.48 359.25 358.51
  Q 353.03 358.51 349.70 363.43
  Q 348.02 365.91 347.99 370.90
  Q 347.98 371.28 347.98 379.50
  Q 347.94 506.26 347.96 633.05
  L 347.97 933.03
  L 347.96 935.93
  Q 347.11 946.99 346.34 957.99
  Q 346.00 962.91 344.65 969.83
  Q 342.65 980.16 332.99 982.92
  C 325.29 985.12 316.19 988.64 307.50 987.21
  C 304.36 986.69 298.38 984.65 294.80 987.11
  C 290.44 990.12 288.00 992.27 284.27 993.63
  Q 272.47 997.92 264.22 988.42
  C 259.61 983.12 258.10 976.05 252.46 971.43
  Q 252.38 882.42 252.46 793.33
  C 252.46 788.12 252.03 783.68 252.22 778.89
  Q 252.39 774.63 252.39 773.13
  Q 252.48 528.94 252.49 365.75
  Q 252.49 348.48 252.78 339.76
  C 253.07 331.07 254.11 323.10 257.16 314.63
  Q 264.86 293.31 282.76 278.52
  Q 292.82 270.21 305.98 265.44
  Q 314.35 262.41 319.24 261.73
  Q 330.92 260.11 341.25 260.11
  Q 661.10 260.07 980.96 260.10
  Z"
/>
<path fill="#dce6ee" d="
  M 1195.57 469.52
  L 1189.90 462.39
  A 0.93 0.92 -32.6 0 0 1188.75 462.14
  Q 1187.82 462.63 1187.62 464.01
  C 1186.14 474.46 1185.48 482.26 1179.00 489.72
  C 1175.16 494.14 1172.67 497.41 1169.89 502.00
  C 1168.59 504.14 1167.37 504.43 1165.19 503.46
  Q 1159.27 500.81 1149.03 495.32
  C 1139.22 490.06 1133.79 480.79 1127.05 474.80
  C 1121.90 470.22 1115.30 466.71 1110.33 462.91
  Q 1105.24 459.03 1100.77 452.57
  A 1.47 1.45 -62.3 0 1 1100.52 451.75
  L 1100.30 425.96
  Q 1100.13 398.10 1100.32 370.26
  Q 1100.37 362.71 1095.12 359.95
  Q 1092.23 358.43 1083.15 358.43
  Q 1008.09 358.47 933.05 358.49
  Q 933.39 358.32 933.78 358.32
  Q 970.52 358.31 983.77 358.17
  Q 983.88 358.17 983.94 358.15
  A 0.02 0.01 34.3 0 0 983.93 358.12
  L 979.74 357.50
  A 0.16 0.16 0.0 0 1 979.75 357.18
  C 988.84 356.19 998.11 355.89 1006.30 352.14
  C 1016.47 347.48 1015.34 336.40 1019.00 327.08
  Q 1021.67 320.29 1024.78 316.04
  C 1029.27 309.91 1032.03 305.37 1031.93 297.36
  Q 1031.82 288.82 1033.47 281.59
  C 1035.00 274.89 1031.56 271.98 1025.72 269.69
  C 1017.25 266.37 1013.31 264.37 1005.69 263.48
  Q 989.87 261.63 969.77 260.46
  A 0.08 0.08 0.0 0 1 969.74 260.31
  Q 969.83 260.26 969.99 260.27
  Q 975.52 260.58 980.96 260.10
  Q 1036.85 260.06 1092.75 260.04
  C 1104.24 260.04 1117.25 259.58 1127.38 261.30
  C 1160.08 266.86 1187.33 292.44 1193.93 325.19
  Q 1195.38 332.38 1195.40 350.93
  Q 1195.45 410.16 1195.57 469.52
  Z"
/>
<path fill="#275c7d" d="
  M 681.54 358.51
  L 659.82 358.86
  A 2.19 2.17 31.2 0 0 658.91 359.08
  C 645.42 366.00 632.33 379.37 623.99 386.74
  C 612.81 396.62 600.44 402.10 585.15 407.10
  Q 567.64 412.82 549.14 415.32
  L 534.78 411.31
  Q 510.50 406.32 486.42 411.69
  C 438.95 422.98 404.93 461.02 399.26 509.56
  C 398.05 521.30 397.33 532.59 393.00 544.04
  Q 391.07 549.15 385.75 557.27
  C 379.15 567.36 372.51 578.23 366.24 589.82
  C 361.02 599.49 356.25 612.57 350.91 624.56
  C 349.79 627.09 348.96 630.23 347.96 633.05
  Q 347.94 506.26 347.98 379.50
  Q 347.98 371.28 347.99 370.90
  Q 348.02 365.91 349.70 363.43
  Q 353.03 358.51 359.25 358.51
  Q 520.39 358.48 681.54 358.51
  Z"
/>
<path fill="#1c4e6a" d="
  M 836.54 358.50
  L 820.31 359.57
  A 0.44 0.44 0.0 0 0 820.11 360.38
  C 822.95 362.07 825.23 363.32 823.35 367.18
  C 817.74 378.70 813.71 389.93 807.48 399.96
  Q 802.83 407.45 793.07 423.00
  C 787.50 431.87 781.27 446.15 778.35 451.40
  C 772.63 461.70 765.70 469.56 757.75 478.41
  C 755.11 481.35 751.20 485.92 750.43 490.01
  A 4.02 4.00 -65.8 0 0 751.91 493.93
  Q 754.88 496.22 759.62 497.49
  L 725.05 497.70
  L 669.53 497.61
  L 621.12 497.36
  Q 617.46 482.67 610.95 469.44
  Q 600.23 448.50 581.64 433.59
  Q 567.23 421.86 549.14 415.32
  Q 567.64 412.82 585.15 407.10
  C 600.44 402.10 612.81 396.62 623.99 386.74
  C 632.33 379.37 645.42 366.00 658.91 359.08
  A 2.19 2.17 31.2 0 1 659.82 358.86
  L 681.54 358.51
  L 836.54 358.50
  Z"
/>
<path fill="#194661" d="
  M 933.05 358.49
  Q 928.24 359.01 923.60 360.17
  C 917.95 361.57 916.97 365.85 915.31 371.17
  C 913.26 377.76 910.18 384.32 907.49 390.63
  C 903.94 398.95 900.83 409.03 897.78 418.32
  Q 861.53 434.84 842.95 470.11
  Q 837.59 480.26 835.65 487.68
  Q 833.59 495.56 832.90 497.51
  L 759.62 497.49
  Q 754.88 496.22 751.91 493.93
  A 4.02 4.00 -65.8 0 1 750.43 490.01
  C 751.20 485.92 755.11 481.35 757.75 478.41
  C 765.70 469.56 772.63 461.70 778.35 451.40
  C 781.27 446.15 787.50 431.87 793.07 423.00
  Q 802.83 407.45 807.48 399.96
  C 813.71 389.93 817.74 378.70 823.35 367.18
  C 825.23 363.32 822.95 362.07 820.11 360.38
  A 0.44 0.44 0.0 0 1 820.31 359.57
  L 836.54 358.50
  L 933.05 358.49
  Z"
/>
<path fill="#143d54" d="
  M 1100.30 425.96
  L 1100.24 464.25
  C 1091.37 455.79 1082.18 453.34 1070.60 451.72
  Q 1049.38 448.76 1029.39 449.00
  Q 1020.81 439.05 1010.15 430.88
  Q 995.27 419.92 977.19 414.16
  Q 952.58 406.53 926.68 410.21
  Q 911.78 412.20 897.78 418.32
  C 900.83 409.03 903.94 398.95 907.49 390.63
  C 910.18 384.32 913.26 377.76 915.31 371.17
  C 916.97 365.85 917.95 361.57 923.60 360.17
  Q 928.24 359.01 933.05 358.49
  Q 1008.09 358.47 1083.15 358.43
  Q 1092.23 358.43 1095.12 359.95
  Q 1100.37 362.71 1100.32 370.26
  Q 1100.13 398.10 1100.30 425.96
  Z"
/>
<path fill="#fc8b6a" d="
  M 534.78 411.31
  Q 527.08 428.19 520.77 445.47
  Q 517.57 454.22 514.46 459.58
  Q 507.51 471.57 500.81 483.68
  Q 493.93 494.88 488.57 501.47
  Q 481.22 510.52 469.96 519.18
  Q 458.15 527.35 451.56 530.44
  Q 446.78 532.68 442.33 533.61
  C 438.75 534.36 433.17 534.90 429.32 536.41
  C 418.07 540.82 411.60 550.73 406.27 561.13
  Q 399.13 543.13 398.82 523.77
  C 405.65 513.47 412.47 505.36 421.30 499.39
  C 429.94 493.55 437.16 489.10 445.88 482.58
  C 453.35 476.99 465.71 468.65 475.03 460.56
  Q 485.15 451.77 487.02 438.93
  Q 487.33 436.81 487.83 421.17
  Q 488.00 415.79 486.42 411.69
  Q 510.50 406.32 534.78 411.31
  Z"
/>
<path fill="#448e95" d="
  M 977.19 414.16
  C 974.92 438.38 970.07 460.57 960.18 483.12
  C 951.87 502.06 940.18 515.96 923.39 530.06
  Q 897.08 552.15 866.16 567.01
  Q 856.01 571.88 845.39 576.53
  C 839.01 565.20 835.36 553.90 832.37 541.28
  L 831.29 530.94
  Q 850.52 525.18 873.08 514.39
  C 898.65 502.16 916.75 482.18 923.45 454.21
  C 926.92 439.74 927.40 425.11 926.68 410.21
  Q 952.58 406.53 977.19 414.16
  Z"
/>
<path fill="#599ca5" d="
  M 926.68 410.21
  C 927.40 425.11 926.92 439.74 923.45 454.21
  C 916.75 482.18 898.65 502.16 873.08 514.39
  Q 850.52 525.18 831.29 530.94
  C 830.64 519.66 831.36 508.70 832.90 497.51
  Q 833.59 495.56 835.65 487.68
  Q 837.59 480.26 842.95 470.11
  Q 861.53 434.84 897.78 418.32
  Q 911.78 412.20 926.68 410.21
  Z"
/>
<path fill="#fd9e6f" d="
  M 398.82 523.77
  L 399.26 509.56
  C 404.93 461.02 438.95 422.98 486.42 411.69
  Q 488.00 415.79 487.83 421.17
  Q 487.33 436.81 487.02 438.93
  Q 485.15 451.77 475.03 460.56
  C 465.71 468.65 453.35 476.99 445.88 482.58
  C 437.16 489.10 429.94 493.55 421.30 499.39
  C 412.47 505.36 405.65 513.47 398.82 523.77
  Z"
/>
<path fill="#f17172" d="
  M 549.14 415.32
  Q 567.23 421.86 581.64 433.59
  Q 564.92 463.02 543.74 489.25
  Q 530.83 490.83 518.31 488.12
  Q 513.62 487.10 500.81 483.68
  Q 507.51 471.57 514.46 459.58
  Q 517.57 454.22 520.77 445.47
  Q 527.08 428.19 534.78 411.31
  L 549.14 415.32
  Z"
/>
<path fill="#257880" d="
  M 1010.15 430.88
  C 1005.91 462.06 995.55 491.84 977.73 517.76
  Q 965.00 536.27 949.85 551.35
  C 927.76 573.36 902.40 593.07 876.69 611.28
  Q 857.41 597.21 845.39 576.53
  Q 856.01 571.88 866.16 567.01
  Q 897.08 552.15 923.39 530.06
  C 940.18 515.96 951.87 502.06 960.18 483.12
  C 970.07 460.57 974.92 438.38 977.19 414.16
  Q 995.27 419.92 1010.15 430.88
  Z"
/>
<path fill="#c9dae7" d="
  M 1195.57 469.52
  Q 1195.57 576.69 1195.84 684.00
  Q 1195.86 689.37 1195.84 691.97
  Q 1195.71 714.20 1195.71 717.50
  Q 1195.70 722.08 1195.70 722.24
  Q 1195.49 728.37 1195.66 734.25
  C 1196.35 757.34 1195.95 780.30 1195.60 801.49
  Q 1195.55 804.70 1195.75 808.49
  C 1195.92 811.71 1195.65 815.61 1195.65 817.84
  Q 1195.57 960.40 1195.66 985.52
  Q 1195.73 1007.02 1195.60 1018.52
  Q 1195.56 1022.04 1195.65 1100.25
  C 1195.66 1110.88 1194.62 1123.09 1190.87 1133.29
  Q 1182.53 1155.93 1163.78 1170.49
  Q 1149.40 1181.67 1134.74 1185.18
  Q 1124.09 1187.74 1108.00 1187.74
  C 889.35 1187.81 669.19 1187.83 458.75 1187.80
  Q 429.13 1187.79 399.50 1187.90
  L 400.85 1187.72
  A 0.11 0.11 0.0 0 0 400.89 1187.51
  L 397.46 1185.53
  A 1.05 1.05 0.0 0 1 397.45 1183.72
  Q 399.97 1182.23 403.30 1181.72
  Q 418.60 1179.39 430.79 1176.87
  C 435.25 1175.94 439.93 1175.91 443.58 1175.56
  C 451.00 1174.84 459.73 1172.44 465.30 1167.79
  Q 468.02 1165.52 468.57 1164.32
  Q 470.20 1160.79 479.53 1146.62
  C 485.15 1138.07 484.59 1130.65 483.84 1120.30
  C 483.24 1111.93 483.52 1107.75 481.19 1101.70
  C 478.25 1094.06 471.69 1091.82 463.88 1090.43
  C 459.82 1089.71 454.80 1090.08 450.21 1089.78
  L 532.79 1089.76
  Q 809.37 1089.74 1085.95 1089.66
  C 1092.12 1089.66 1095.44 1089.40 1098.60 1084.81
  Q 1100.12 1082.60 1100.23 1074.46
  Q 1100.32 1068.11 1100.32 1061.75
  Q 1100.28 762.95 1100.24 464.25
  L 1100.30 425.96
  L 1100.52 451.75
  A 1.47 1.45 -62.3 0 0 1100.77 452.57
  Q 1105.24 459.03 1110.33 462.91
  C 1115.30 466.71 1121.90 470.22 1127.05 474.80
  C 1133.79 480.79 1139.22 490.06 1149.03 495.32
  Q 1159.27 500.81 1165.19 503.46
  C 1167.37 504.43 1168.59 504.14 1169.89 502.00
  C 1172.67 497.41 1175.16 494.14 1179.00 489.72
  C 1185.48 482.26 1186.14 474.46 1187.62 464.01
  Q 1187.82 462.63 1188.75 462.14
  A 0.93 0.92 -32.6 0 1 1189.90 462.39
  L 1195.57 469.52
  Z"
/>
<path fill="#035d63" d="
  M 1029.39 449.00
  C 1032.53 453.22 1036.20 457.61 1038.76 461.70
  C 1050.55 480.53 1056.05 502.15 1055.66 524.35
  Q 1055.35 541.80 1049.07 558.94
  Q 1036.99 591.88 1008.03 612.74
  Q 1001.97 617.10 995.68 620.16
  Q 986.38 624.69 982.49 625.99
  Q 976.19 628.09 965.68 631.07
  A 1.06 1.06 0.0 0 0 964.95 632.38
  Q 965.48 634.28 965.57 636.51
  Q 965.94 646.39 965.88 656.29
  L 922.20 645.53
  L 922.06 632.18
  A 1.26 1.25 -84.3 0 0 921.07 630.96
  Q 896.66 625.79 876.69 611.28
  C 902.40 593.07 927.76 573.36 949.85 551.35
  Q 965.00 536.27 977.73 517.76
  C 995.55 491.84 1005.91 462.06 1010.15 430.88
  Q 1020.81 439.05 1029.39 449.00
  Z"
/>
<path fill="#e25963" d="
  M 581.64 433.59
  Q 600.23 448.50 610.95 469.44
  Q 607.91 478.60 606.00 482.43
  C 597.91 498.71 583.32 509.76 568.95 519.76
  C 566.50 514.09 563.27 509.83 556.52 510.15
  C 548.64 510.53 540.39 514.46 532.69 518.20
  Q 520.96 520.46 508.95 518.69
  Q 525.78 503.35 543.74 489.25
  Q 564.92 463.02 581.64 433.59
  Z"
/>
<path fill="#043146" d="
  M 1100.24 464.25
  Q 1100.28 762.95 1100.32 1061.75
  Q 1100.32 1068.11 1100.23 1074.46
  Q 1100.12 1082.60 1098.60 1084.81
  C 1095.44 1089.40 1092.12 1089.66 1085.95 1089.66
  Q 809.37 1089.74 532.79 1089.76
  L 525.36 1089.37
  A 1.32 1.29 66.5 0 1 524.55 1089.04
  Q 514.70 1080.41 509.63 1074.53
  Q 500.59 1064.06 497.49 1061.29
  C 487.07 1051.99 474.78 1046.53 462.25 1040.78
  L 476.04 1046.32
  L 492.52 1050.38
  C 542.33 1058.56 589.59 1033.65 612.15 988.88
  Q 618.14 976.99 621.20 962.71
  Q 621.27 962.35 621.62 962.16
  L 670.89 962.06
  Q 682.87 962.15 695.00 962.12
  Q 705.14 962.09 708.95 961.30
  C 732.81 956.31 750.83 935.45 750.64 911.00
  Q 750.54 897.95 750.59 885.00
  L 750.65 849.26
  L 750.46 825.73
  Q 750.70 826.16 752.29 825.90
  L 781.44 825.84
  Q 799.53 826.00 817.59 825.97
  C 822.48 825.97 825.35 825.37 827.84 821.66
  Q 829.12 819.76 829.17 813.15
  Q 829.21 807.46 829.18 801.53
  L 829.21 756.88
  L 888.27 756.79
  Q 899.16 756.75 910.00 756.89
  Q 919.26 757.01 924.96 755.64
  Q 949.71 749.70 960.90 726.95
  Q 965.37 717.88 965.64 707.00
  Q 965.93 695.59 965.86 684.24
  L 965.88 656.29
  Q 965.94 646.39 965.57 636.51
  Q 965.48 634.28 964.95 632.38
  A 1.06 1.06 0.0 0 1 965.68 631.07
  Q 976.19 628.09 982.49 625.99
  Q 986.38 624.69 995.68 620.16
  Q 1001.97 617.10 1008.03 612.74
  Q 1036.99 591.88 1049.07 558.94
  Q 1055.35 541.80 1055.66 524.35
  C 1056.05 502.15 1050.55 480.53 1038.76 461.70
  C 1036.20 457.61 1032.53 453.22 1029.39 449.00
  Q 1049.38 448.76 1070.60 451.72
  C 1082.18 453.34 1091.37 455.79 1100.24 464.25
  Z"
/>
<path fill="#d0424e" d="
  M 610.95 469.44
  Q 617.46 482.67 621.12 497.36
  Q 625.22 520.42 621.32 543.77
  Q 613.43 579.11 587.54 603.30
  C 576.85 613.28 562.96 621.97 548.55 626.59
  C 552.03 622.87 556.32 621.07 560.45 618.64
  A 0.46 0.46 0.0 0 0 560.58 617.97
  L 547.02 600.14
  Q 553.58 587.95 555.50 581.76
  Q 557.57 575.08 559.89 568.50
  C 562.08 562.26 565.16 556.67 567.53 551.41
  C 569.07 548.00 569.45 544.78 568.05 541.34
  C 566.61 537.79 565.28 534.49 565.90 530.54
  Q 566.65 525.73 568.95 519.76
  C 583.32 509.76 597.91 498.71 606.00 482.43
  Q 607.91 478.60 610.95 469.44
  Z"
/>
<path fill="#f6745a" d="
  M 543.74 489.25
  Q 525.78 503.35 508.95 518.69
  Q 492.95 530.83 475.74 541.38
  Q 472.12 530.60 469.96 519.18
  Q 481.22 510.52 488.57 501.47
  Q 493.93 494.88 500.81 483.68
  Q 513.62 487.10 518.31 488.12
  Q 530.83 490.83 543.74 489.25
  Z"
/>
<path fill="#9c4858" d="
  M 669.53 497.61
  Q 670.64 519.43 669.74 541.22
  L 623.75 541.22
  A 2.51 2.50 19.5 0 0 621.81 542.14
  Q 621.54 542.47 621.32 543.77
  Q 625.22 520.42 621.12 497.36
  L 669.53 497.61
  Z"
/>
<path fill="#566668" d="
  M 832.90 497.51
  C 831.36 508.70 830.64 519.66 831.29 530.94
  L 832.37 541.28
  L 727.45 541.22
  L 725.05 497.70
  L 759.62 497.49
  L 832.90 497.51
  Z"
/>
<path fill="#6f5560" d="
  M 725.05 497.70
  L 727.45 541.22
  L 669.74 541.22
  Q 670.64 519.43 669.53 497.61
  L 725.05 497.70
  Z"
/>
<path fill="#e54d41" d="
  M 568.95 519.76
  Q 566.65 525.73 565.90 530.54
  C 565.28 534.49 566.61 537.79 568.05 541.34
  C 569.45 544.78 569.07 548.00 567.53 551.41
  C 565.16 556.67 562.08 562.26 559.89 568.50
  Q 557.57 575.08 555.50 581.76
  Q 553.58 587.95 547.02 600.14
  Q 532.42 598.38 518.74 593.02
  C 506.07 588.06 504.49 578.16 502.40 564.97
  Q 508.33 555.28 513.39 550.66
  C 524.16 540.80 535.25 534.19 532.69 518.20
  C 540.39 514.46 548.64 510.53 556.52 510.15
  C 563.27 509.83 566.50 514.09 568.95 519.76
  Z"
/>
<path fill="#1c4e6a" d="
  M 399.26 509.56
  L 398.82 523.77
  Q 399.13 543.13 406.27 561.13
  Q 415.27 584.79 434.05 602.40
  Q 454.52 621.46 481.75 629.03
  L 489.13 631.06
  L 489.22 703.95
  L 489.22 761.16
  L 489.24 785.35
  L 489.43 828.93
  Q 489.51 829.56 488.92 829.94
  Q 458.64 836.03 435.79 856.42
  L 422.90 867.71
  A 2.83 2.42 -8.5 0 0 422.44 868.24
  Q 415.69 878.79 410.20 885.96
  Q 404.84 892.94 399.00 896.74
  C 391.41 901.67 383.00 905.40 375.76 911.49
  Q 368.69 917.43 359.83 926.78
  C 356.92 929.86 352.93 933.65 347.97 933.03
  L 347.96 633.05
  C 348.96 630.23 349.79 627.09 350.91 624.56
  C 356.25 612.57 361.02 599.49 366.24 589.82
  C 372.51 578.23 379.15 567.36 385.75 557.27
  Q 391.07 549.15 393.00 544.04
  C 397.33 532.59 398.05 521.30 399.26 509.56
  Z"
/>
<path fill="#e8703d" d="
  M 532.69 518.20
  C 535.25 534.19 524.16 540.80 513.39 550.66
  Q 508.33 555.28 502.40 564.97
  Q 497.63 565.52 493.04 566.51
  C 484.23 568.42 479.28 573.95 474.13 581.14
  Q 461.11 599.28 453.71 613.46
  A 0.57 0.56 -58.2 0 0 453.87 614.16
  C 460.77 619.41 468.23 622.18 477.57 626.42
  Q 479.01 627.08 481.75 629.03
  Q 454.52 621.46 434.05 602.40
  C 435.16 584.64 443.73 572.06 456.17 560.21
  Q 465.98 550.86 475.74 541.38
  Q 492.95 530.83 508.95 518.69
  Q 520.96 520.46 532.69 518.20
  Z"
/>
<path fill="#fd8a41" d="
  M 469.96 519.18
  Q 472.12 530.60 475.74 541.38
  Q 465.98 550.86 456.17 560.21
  C 443.73 572.06 435.16 584.64 434.05 602.40
  Q 415.27 584.79 406.27 561.13
  C 411.60 550.73 418.07 540.82 429.32 536.41
  C 433.17 534.90 438.75 534.36 442.33 533.61
  Q 446.78 532.68 451.56 530.44
  Q 458.15 527.35 469.96 519.18
  Z"
/>
<path fill="#143d54" d="
  M 669.74 541.22
  L 727.45 541.22
  L 832.37 541.28
  C 835.36 553.90 839.01 565.20 845.39 576.53
  Q 857.41 597.21 876.69 611.28
  Q 896.66 625.79 921.07 630.96
  A 1.26 1.25 -84.3 0 1 922.06 632.18
  L 922.20 645.53
  L 921.93 675.82
  Q 921.97 687.53 921.77 699.33
  C 921.68 705.13 920.81 708.35 916.31 711.19
  Q 914.13 712.57 906.91 712.59
  Q 897.83 712.61 888.87 712.74
  L 829.17 712.37
  L 829.17 657.27
  Q 829.18 650.46 829.13 644.91
  C 829.08 640.12 828.49 637.13 824.79 634.61
  Q 823.04 633.41 816.41 633.33
  Q 809.48 633.24 802.51 633.23
  Q 789.49 621.17 785.73 617.97
  C 778.10 611.48 768.10 606.41 757.85 603.48
  Q 726.50 594.52 694.74 602.29
  C 681.31 605.57 666.12 613.27 657.88 624.31
  Q 655.10 628.03 654.71 633.27
  Q 647.02 633.33 639.31 633.32
  Q 632.94 633.32 630.65 639.72
  Q 629.89 641.85 630.22 648.61
  Q 608.52 658.56 585.21 662.68
  C 568.77 665.58 551.11 667.91 534.29 665.08
  A 0.62 0.61 3.5 0 1 533.77 664.50
  L 533.11 648.53
  L 533.17 631.86
  A 0.88 0.86 75.0 0 1 533.59 631.11
  L 535.05 630.24
  L 548.55 626.59
  C 562.96 621.97 576.85 613.28 587.54 603.30
  Q 613.43 579.11 621.32 543.77
  Q 621.54 542.47 621.81 542.14
  A 2.51 2.50 19.5 0 1 623.75 541.22
  L 669.74 541.22
  Z"
/>
<path fill="#ef591f" d="
  M 547.02 600.14
  L 560.58 617.97
  A 0.46 0.46 0.0 0 1 560.45 618.64
  C 556.32 621.07 552.03 622.87 548.55 626.59
  L 535.05 630.24
  Q 533.01 630.31 531.01 631.04
  Q 528.10 632.11 527.09 632.12
  Q 525.11 632.14 523.20 632.64
  Q 522.58 632.80 519.29 632.88
  Q 504.20 633.22 489.13 631.06
  L 481.75 629.03
  Q 479.01 627.08 477.57 626.42
  C 468.23 622.18 460.77 619.41 453.87 614.16
  A 0.57 0.56 -58.2 0 1 453.71 613.46
  Q 461.11 599.28 474.13 581.14
  C 479.28 573.95 484.23 568.42 493.04 566.51
  Q 497.63 565.52 502.40 564.97
  C 504.49 578.16 506.07 588.06 518.74 593.02
  Q 532.42 598.38 547.02 600.14
  Z"
/>
<path fill="#194661" d="
  M 802.51 633.23
  L 782.62 633.27
  L 746.70 633.35
  L 718.05 633.39
  L 690.72 633.41
  L 661.48 633.35
  L 654.71 633.27
  Q 655.10 628.03 657.88 624.31
  C 666.12 613.27 681.31 605.57 694.74 602.29
  Q 726.50 594.52 757.85 603.48
  C 768.10 606.41 778.10 611.48 785.73 617.97
  Q 789.49 621.17 802.51 633.23
  Z"
/>
<path fill="#da5329" d="
  M 535.05 630.24
  L 533.59 631.11
  A 0.88 0.86 75.0 0 0 533.17 631.86
  L 533.11 648.53
  L 533.23 718.76
  Q 529.34 712.31 522.10 710.51
  Q 505.94 706.49 489.22 703.95
  L 489.13 631.06
  Q 504.20 633.22 519.29 632.88
  Q 522.58 632.80 523.20 632.64
  Q 525.11 632.14 527.09 632.12
  Q 528.10 632.11 531.01 631.04
  Q 533.01 630.31 535.05 630.24
  Z"
/>
<path fill="#e2a5b1" d="
  M 654.71 633.27
  L 661.48 633.35
  Q 656.41 636.15 655.91 642.01
  Q 655.22 650.03 654.50 657.90
  L 639.34 657.99
  L 630.26 658.50
  L 630.22 648.61
  Q 629.89 641.85 630.65 639.72
  Q 632.94 633.32 639.31 633.32
  Q 647.02 633.33 654.71 633.27
  Z"
/>
<path fill="#fd9e6f" d="
  M 690.72 633.41
  Q 691.22 648.56 691.46 652.79
  Q 691.60 655.18 693.05 657.60
  Q 691.84 658.14 690.75 658.20
  L 678.02 658.03
  L 666.94 657.99
  L 655.03 658.11
  L 654.50 657.90
  Q 655.22 650.03 655.91 642.01
  Q 656.41 636.15 661.48 633.35
  L 690.72 633.41
  Z"
/>
<path fill="#e9edc5" d="
  M 746.70 633.35
  L 748.22 633.58
  A 0.88 0.87 -88.4 0 1 748.96 634.37
  L 750.85 656.92
  A 0.69 0.69 0.0 0 1 750.23 657.66
  L 747.29 657.93
  L 730.10 658.03
  L 720.07 657.92
  Q 718.29 645.85 718.05 633.39
  L 746.70 633.35
  Z"
/>
<path fill="#bad5a5" d="
  M 782.62 633.27
  C 782.32 641.24 783.01 650.37 780.48 657.94
  L 753.05 658.04
  L 747.29 657.93
  L 750.23 657.66
  A 0.69 0.69 0.0 0 0 750.85 656.92
  L 748.96 634.37
  A 0.88 0.87 -88.4 0 0 748.22 633.58
  L 746.70 633.35
  L 782.62 633.27
  Z"
/>
<path fill="#84c3e3" d="
  M 802.51 633.23
  Q 809.48 633.24 816.41 633.33
  Q 823.04 633.41 824.79 634.61
  C 828.49 637.13 829.08 640.12 829.13 644.91
  Q 829.18 650.46 829.17 657.27
  L 805.64 657.94
  Q 794.56 657.99 783.27 657.76
  Q 782.54 657.75 781.48 658.21
  L 780.48 657.94
  C 783.01 650.37 782.32 641.24 782.62 633.27
  L 802.51 633.23
  Z"
/>
<path fill="#f9e1c2" d="
  M 718.05 633.39
  Q 718.29 645.85 720.07 657.92
  L 718.12 658.21
  L 693.05 657.60
  Q 691.60 655.18 691.46 652.79
  Q 691.22 648.56 690.72 633.41
  L 718.05 633.39
  Z"
/>
<path fill="#0e5e9d" d="
  M 965.88 656.29
  L 965.86 684.24
  L 921.93 675.82
  L 922.20 645.53
  L 965.88 656.29
  Z"
/>
<path fill="#194661" d="
  M 630.22 648.61
  L 630.26 658.50
  L 630.29 799.33
  L 630.15 806.68
  C 627.47 814.39 623.58 820.52 615.14 822.43
  C 605.91 824.52 596.29 824.50 584.25 825.40
  Q 565.42 826.81 561.05 826.66
  Q 547.32 826.20 534.09 820.98
  A 0.36 0.36 0.0 0 0 533.60 821.30
  L 533.32 828.05
  L 533.22 818.81
  L 533.27 767.79
  L 533.23 718.76
  L 533.11 648.53
  L 533.77 664.50
  A 0.62 0.61 3.5 0 0 534.29 665.08
  C 551.11 667.91 568.77 665.58 585.21 662.68
  Q 608.52 658.56 630.22 648.61
  Z"
/>
<path fill="#558ec5" d="
  M 829.17 657.27
  L 829.17 712.37
  L 829.21 756.88
  L 829.18 801.53
  Q 819.98 801.12 810.59 801.08
  C 808.79 801.07 806.91 800.01 805.43 801.29
  A 1.37 1.34 26.3 0 1 804.45 801.61
  L 798.69 801.10
  L 805.35 800.98
  A 0.39 0.39 0.0 0 0 805.73 800.59
  L 805.64 657.94
  L 829.17 657.27
  Z"
/>
<path fill="#de7e94" d="
  M 639.34 657.99
  Q 638.81 715.99 639.32 774.01
  Q 639.41 783.57 640.05 801.08
  Q 634.19 801.96 630.29 799.33
  L 630.26 658.50
  L 639.34 657.99
  Z"
/>
<path fill="#f7b64f" d="
  M 693.05 657.60
  L 718.12 658.21
  Q 717.35 676.26 717.72 694.34
  Q 717.94 704.85 717.92 715.35
  Q 717.86 758.01 717.95 800.97
  L 692.49 801.29
  Q 691.99 801.02 691.11 800.98
  Q 691.91 796.88 691.90 792.65
  Q 691.69 727.84 691.52 663.03
  Q 691.51 661.93 690.75 658.20
  Q 691.84 658.14 693.05 657.60
  Z"
/>
<path fill="#cfd565" d="
  M 747.29 657.93
  L 753.05 658.04
  Q 752.77 660.85 752.72 662.94
  Q 752.29 680.25 752.45 691.81
  C 752.83 719.77 752.40 733.50 752.21 773.51
  Q 752.14 788.83 752.75 801.14
  L 751.11 801.51
  L 730.42 800.90
  Q 730.38 759.62 730.34 718.42
  C 730.33 703.27 730.79 678.25 730.10 658.03
  L 747.29 657.93
  Z"
/>
<path fill="#0e9bd1" d="
  M 805.64 657.94
  L 805.73 800.59
  A 0.39 0.39 0.0 0 1 805.35 800.98
  L 798.69 801.10
  L 782.48 801.19
  Q 782.34 800.93 782.12 800.73
  A 0.92 0.92 0.0 0 1 781.82 799.93
  C 782.35 795.86 781.80 791.79 781.87 787.66
  Q 782.18 769.99 781.73 747.94
  C 781.68 745.33 782.08 741.78 782.04 738.41
  Q 781.75 715.28 781.98 692.92
  C 782.09 681.60 781.60 669.80 781.48 658.21
  Q 782.54 657.75 783.27 657.76
  Q 794.56 657.99 805.64 657.94
  Z"
/>
<path fill="#f17172" d="
  M 654.50 657.90
  L 655.03 658.11
  Q 654.11 663.07 654.12 669.00
  Q 654.25 714.25 654.10 793.86
  Q 654.09 798.34 654.70 801.19
  L 651.97 801.34
  L 640.05 801.08
  Q 639.41 783.57 639.32 774.01
  Q 638.81 715.99 639.34 657.99
  L 654.50 657.90
  Z"
/>
<path fill="#e54d41" d="
  M 666.94 657.99
  C 667.98 708.31 666.80 756.80 667.72 801.25
  L 654.70 801.19
  Q 654.09 798.34 654.10 793.86
  Q 654.25 714.25 654.12 669.00
  Q 654.11 663.07 655.03 658.11
  L 666.94 657.99
  Z"
/>
<path fill="#e8703d" d="
  M 678.02 658.03
  Q 679.43 681.81 679.50 705.55
  Q 679.65 753.34 679.73 801.19
  L 675.47 801.30
  L 667.72 801.25
  C 666.80 756.80 667.98 708.31 666.94 657.99
  L 678.02 658.03
  Z"
/>
<path fill="#fd8a41" d="
  M 690.75 658.20
  Q 691.51 661.93 691.52 663.03
  Q 691.69 727.84 691.90 792.65
  Q 691.91 796.88 691.11 800.98
  L 679.73 801.19
  Q 679.65 753.34 679.50 705.55
  Q 679.43 681.81 678.02 658.03
  L 690.75 658.20
  Z"
/>
<path fill="#fddc7f" d="
  M 720.07 657.92
  L 730.10 658.03
  C 730.79 678.25 730.33 703.27 730.34 718.42
  Q 730.38 759.62 730.42 800.90
  L 728.96 801.00
  L 717.95 800.97
  Q 717.86 758.01 717.92 715.35
  Q 717.94 704.85 717.72 694.34
  Q 717.35 676.26 718.12 658.21
  L 720.07 657.92
  Z"
/>
<path fill="#8ab465" d="
  M 780.48 657.94
  L 781.48 658.21
  C 781.60 669.80 782.09 681.60 781.98 692.92
  Q 781.75 715.28 782.04 738.41
  C 782.08 741.78 781.68 745.33 781.73 747.94
  Q 782.18 769.99 781.87 787.66
  C 781.80 791.79 782.35 795.86 781.82 799.93
  A 0.92 0.92 0.0 0 0 782.12 800.73
  Q 782.34 800.93 782.48 801.19
  Q 782.15 801.05 781.61 801.38
  L 752.75 801.14
  Q 752.14 788.83 752.21 773.51
  C 752.40 733.50 752.83 719.77 752.45 691.81
  Q 752.29 680.25 752.72 662.94
  Q 752.77 660.85 753.05 658.04
  L 780.48 657.94
  Z"
/>
<path fill="#0476a9" d="
  M 965.86 684.24
  Q 965.93 695.59 965.64 707.00
  Q 965.37 717.88 960.90 726.95
  Q 949.71 749.70 924.96 755.64
  Q 919.26 757.01 910.00 756.89
  Q 899.16 756.75 888.27 756.79
  Q 887.43 734.71 888.87 712.74
  Q 897.83 712.61 906.91 712.59
  Q 914.13 712.57 916.31 711.19
  C 920.81 708.35 921.68 705.13 921.77 699.33
  Q 921.97 687.53 921.93 675.82
  L 965.86 684.24
  Z"
/>
<path fill="#e8703d" d="
  M 533.23 718.76
  L 533.27 767.79
  L 489.22 761.16
  L 489.22 703.95
  Q 505.94 706.49 522.10 710.51
  Q 529.34 712.31 533.23 718.76
  Z"
/>
<path fill="#0e5e9d" d="
  M 888.87 712.74
  Q 887.43 734.71 888.27 756.79
  L 829.21 756.88
  L 829.17 712.37
  L 888.87 712.74
  Z"
/>
<path fill="#fd8a41" d="
  M 533.27 767.79
  L 533.22 818.81
  Q 526.44 810.67 519.29 807.56
  C 512.94 804.79 504.99 802.04 500.04 798.34
  Q 493.38 793.36 489.24 785.35
  L 489.22 761.16
  L 533.27 767.79
  Z"
/>
<path fill="#f7b64f" d="
  M 533.22 818.81
  L 533.32 828.05
  Q 532.94 828.97 533.39 829.73
  Q 514.04 826.21 494.22 828.70
  Q 491.89 828.99 489.43 828.93
  L 489.24 785.35
  Q 493.38 793.36 500.04 798.34
  C 504.99 802.04 512.94 804.79 519.29 807.56
  Q 526.44 810.67 533.22 818.81
  Z"
/>
<path fill="#e2a5b1" d="
  M 640.05 801.08
  L 651.97 801.34
  Q 653.42 806.79 653.40 808.60
  Q 653.23 821.83 656.41 826.28
  Q 656.52 826.43 655.38 826.02
  A 0.16 0.16 0.0 0 1 655.44 825.71
  L 659.71 825.87
  Q 651.59 825.88 643.45 825.86
  Q 636.76 825.85 634.32 824.31
  Q 630.49 821.92 630.32 816.24
  Q 630.18 811.50 630.15 806.68
  L 630.29 799.33
  Q 634.19 801.96 640.05 801.08
  Z"
/>
<path fill="#f9e1c2" d="
  M 717.95 800.97
  L 728.96 801.00
  Q 730.33 813.27 729.25 825.79
  L 706.44 825.92
  L 691.42 825.90
  Q 691.19 816.36 691.33 806.78
  Q 691.39 802.73 692.49 801.29
  L 717.95 800.97
  Z"
/>
<path fill="#84c3e3" d="
  M 829.18 801.53
  Q 829.21 807.46 829.17 813.15
  Q 829.12 819.76 827.84 821.66
  C 825.35 825.37 822.48 825.97 817.59 825.97
  Q 799.53 826.00 781.44 825.84
  Q 782.37 822.58 782.20 820.21
  Q 781.52 810.69 781.61 801.38
  Q 782.15 801.05 782.48 801.19
  L 798.69 801.10
  L 804.45 801.61
  A 1.37 1.34 26.3 0 0 805.43 801.29
  C 806.91 800.01 808.79 801.07 810.59 801.08
  Q 819.98 801.12 829.18 801.53
  Z"
/>
<path fill="#fdcc7e" d="
  M 691.11 800.98
  Q 691.99 801.02 692.49 801.29
  Q 691.39 802.73 691.33 806.78
  Q 691.19 816.36 691.42 825.90
  L 676.80 825.88
  L 674.25 825.60
  A 0.56 0.55 -85.1 0 1 673.76 825.01
  L 675.47 801.30
  L 679.73 801.19
  L 691.11 800.98
  Z"
/>
<path fill="#e9edc5" d="
  M 730.42 800.90
  L 751.11 801.51
  C 752.48 808.98 752.63 818.08 752.29 825.90
  Q 750.70 826.16 750.46 825.73
  L 729.25 825.79
  Q 730.33 813.27 728.96 801.00
  L 730.42 800.90
  Z"
/>
<path fill="#bad5a5" d="
  M 781.61 801.38
  Q 781.52 810.69 782.20 820.21
  Q 782.37 822.58 781.44 825.84
  L 752.29 825.90
  C 752.63 818.08 752.48 808.98 751.11 801.51
  L 752.75 801.14
  L 781.61 801.38
  Z"
/>
<path fill="#fd9e6f" d="
  M 654.70 801.19
  L 667.72 801.25
  L 675.47 801.30
  L 673.76 825.01
  A 0.56 0.55 -85.1 0 0 674.25 825.60
  L 676.80 825.88
  L 659.71 825.87
  L 655.44 825.71
  A 0.16 0.16 0.0 0 0 655.38 826.02
  Q 656.52 826.43 656.41 826.28
  Q 653.23 821.83 653.40 808.60
  Q 653.42 806.79 651.97 801.34
  L 654.70 801.19
  Z"
/>
<path fill="#143d54" d="
  M 630.15 806.68
  Q 630.18 811.50 630.32 816.24
  Q 630.49 821.92 634.32 824.31
  Q 636.76 825.85 643.45 825.86
  Q 651.59 825.88 659.71 825.87
  L 676.80 825.88
  L 691.42 825.90
  L 706.44 825.92
  L 706.56 850.82
  L 706.58 903.30
  C 706.54 905.80 706.60 908.55 705.79 910.84
  Q 703.12 918.42 695.00 918.44
  Q 686.72 918.45 678.47 918.38
  L 621.32 918.29
  Q 616.18 892.28 600.83 872.25
  Q 586.67 853.66 566.51 842.10
  Q 551.05 833.38 533.39 829.73
  Q 532.94 828.97 533.32 828.05
  L 533.60 821.30
  A 0.36 0.36 0.0 0 1 534.09 820.98
  Q 547.32 826.20 561.05 826.66
  Q 565.42 826.81 584.25 825.40
  C 596.29 824.50 605.91 824.52 615.14 822.43
  C 623.58 820.52 627.47 814.39 630.15 806.68
  Z"
/>
<path fill="#8e7241" d="
  M 729.25 825.79
  L 750.46 825.73
  L 750.65 849.26
  Q 728.60 848.44 706.56 850.82
  L 706.44 825.92
  L 729.25 825.79
  Z"
/>
<path fill="#fdcc7e" d="
  M 533.39 829.73
  Q 551.05 833.38 566.51 842.10
  C 560.33 841.10 554.71 838.43 548.97 836.95
  A 0.61 0.61 0.0 0 0 548.27 837.29
  Q 542.51 849.99 532.26 876.08
  C 516.12 917.19 483.09 949.82 442.27 966.23
  Q 427.22 972.28 426.65 972.52
  C 416.53 976.73 413.14 981.48 411.68 992.21
  Q 401.96 973.78 399.47 953.60
  L 398.73 941.35
  Q 406.74 935.78 411.11 933.35
  C 422.75 926.90 439.40 920.63 451.11 912.56
  C 479.67 892.88 490.49 864.04 488.92 829.94
  Q 489.51 829.56 489.43 828.93
  Q 491.89 828.99 494.22 828.70
  Q 514.04 826.21 533.39 829.73
  Z"
/>
<path fill="#fed99a" d="
  M 488.92 829.94
  C 490.49 864.04 479.67 892.88 451.11 912.56
  C 439.40 920.63 422.75 926.90 411.11 933.35
  Q 406.74 935.78 398.73 941.35
  C 398.08 908.90 412.01 878.14 435.79 856.42
  Q 458.64 836.03 488.92 829.94
  Z"
/>
<path fill="#f7b64f" d="
  M 566.51 842.10
  Q 586.67 853.66 600.83 872.25
  Q 600.02 873.78 598.32 873.07
  A 0.63 0.62 30.0 0 0 597.58 873.26
  C 585.97 888.22 575.05 906.93 567.35 918.24
  C 550.02 943.69 527.56 967.18 504.09 986.99
  C 485.64 1002.56 464.65 1014.10 442.93 1025.36
  A 0.31 0.31 0.0 0 0 442.89 1025.89
  C 452.35 1032.55 460.88 1037.12 472.44 1043.31
  Q 473.55 1043.91 476.04 1046.32
  L 462.25 1040.78
  Q 429.06 1024.40 411.68 992.21
  C 413.14 981.48 416.53 976.73 426.65 972.52
  Q 427.22 972.28 442.27 966.23
  C 483.09 949.82 516.12 917.19 532.26 876.08
  Q 542.51 849.99 548.27 837.29
  A 0.61 0.61 0.0 0 1 548.97 836.95
  C 554.71 838.43 560.33 841.10 566.51 842.10
  Z"
/>
<path fill="#b0803b" d="
  M 750.65 849.26
  L 750.59 885.00
  Q 738.32 886.79 726.57 889.42
  Q 713.80 892.27 706.58 903.30
  L 706.56 850.82
  Q 728.60 848.44 750.65 849.26
  Z"
/>
<path fill="#194661" d="
  M 435.79 856.42
  C 412.01 878.14 398.08 908.90 398.73 941.35
  L 399.47 953.60
  Q 381.77 972.62 360.03 993.89
  Q 351.73 1002.02 348.03 1013.89
  L 347.96 935.93
  L 347.97 933.03
  C 352.93 933.65 356.92 929.86 359.83 926.78
  Q 368.69 917.43 375.76 911.49
  C 383.00 905.40 391.41 901.67 399.00 896.74
  Q 404.84 892.94 410.20 885.96
  Q 415.69 878.79 422.44 868.24
  A 2.83 2.42 -8.5 0 1 422.90 867.71
  L 435.79 856.42
  Z"
/>
<path fill="#f1a123" d="
  M 600.83 872.25
  Q 616.18 892.28 621.32 918.29
  L 621.20 919.94
  Q 609.39 944.07 593.33 965.42
  Q 568.35 998.66 538.17 1027.90
  Q 526.52 1039.19 522.65 1041.78
  C 513.58 1047.83 503.19 1049.20 492.52 1050.38
  L 476.04 1046.32
  Q 473.55 1043.91 472.44 1043.31
  C 460.88 1037.12 452.35 1032.55 442.89 1025.89
  A 0.31 0.31 0.0 0 1 442.93 1025.36
  C 464.65 1014.10 485.64 1002.56 504.09 986.99
  C 527.56 967.18 550.02 943.69 567.35 918.24
  C 575.05 906.93 585.97 888.22 597.58 873.26
  A 0.63 0.62 30.0 0 1 598.32 873.07
  Q 600.02 873.78 600.83 872.25
  Z"
/>
<path fill="#ea8e15" d="
  M 750.59 885.00
  Q 750.54 897.95 750.64 911.00
  C 750.83 935.45 732.81 956.31 708.95 961.30
  Q 705.14 962.09 695.00 962.12
  Q 682.87 962.15 670.89 962.06
  L 675.25 919.10
  A 0.57 0.57 0.0 0 1 675.77 918.59
  L 678.47 918.38
  Q 686.72 918.45 695.00 918.44
  Q 703.12 918.42 705.79 910.84
  C 706.60 908.55 706.54 905.80 706.58 903.30
  Q 713.80 892.27 726.57 889.42
  Q 738.32 886.79 750.59 885.00
  Z"
/>
<path fill="#c26e07" d="
  M 678.47 918.38
  L 675.77 918.59
  A 0.57 0.57 0.0 0 0 675.25 919.10
  L 670.89 962.06
  L 621.62 962.16
  Q 621.59 961.88 621.50 961.70
  Q 621.37 961.43 621.40 961.26
  Q 624.61 944.38 622.63 926.76
  Q 622.22 923.07 621.20 919.94
  L 621.32 918.29
  L 678.47 918.38
  Z"
/>
<path fill="#ea8e15" d="
  M 621.62 962.16
  Q 621.27 962.35 621.20 962.71
  Q 618.14 976.99 612.15 988.88
  C 589.59 1033.65 542.33 1058.56 492.52 1050.38
  C 503.19 1049.20 513.58 1047.83 522.65 1041.78
  Q 526.52 1039.19 538.17 1027.90
  Q 568.35 998.66 593.33 965.42
  Q 609.39 944.07 621.20 919.94
  Q 622.22 923.07 622.63 926.76
  Q 624.61 944.38 621.40 961.26
  Q 621.37 961.43 621.50 961.70
  Q 621.59 961.88 621.62 962.16
  Z"
/>
<path fill="#dce6ee" d="
  M 347.96 935.93
  L 348.03 1013.89
  Q 347.94 1044.63 347.98 1075.60
  C 347.99 1081.70 348.64 1085.41 353.44 1088.42
  Q 355.63 1089.79 362.89 1089.80
  Q 406.55 1089.83 450.21 1089.78
  C 454.80 1090.08 459.82 1089.71 463.88 1090.43
  C 471.69 1091.82 478.25 1094.06 481.19 1101.70
  C 483.52 1107.75 483.24 1111.93 483.84 1120.30
  C 484.59 1130.65 485.15 1138.07 479.53 1146.62
  Q 470.20 1160.79 468.57 1164.32
  Q 468.02 1165.52 465.30 1167.79
  C 459.73 1172.44 451.00 1174.84 443.58 1175.56
  C 439.93 1175.91 435.25 1175.94 430.79 1176.87
  Q 418.60 1179.39 403.30 1181.72
  Q 399.97 1182.23 397.45 1183.72
  A 1.05 1.05 0.0 0 0 397.46 1185.53
  L 400.89 1187.51
  A 0.11 0.11 0.0 0 1 400.85 1187.72
  L 399.50 1187.90
  Q 368.50 1187.84 337.50 1187.76
  Q 325.43 1187.73 313.58 1184.86
  Q 294.34 1180.20 280.28 1166.94
  C 275.50 1162.44 269.28 1156.24 265.74 1150.36
  C 259.27 1139.60 254.89 1130.47 253.76 1119.25
  C 253.25 1114.18 252.69 1110.33 252.52 1106.24
  Q 251.99 1093.19 252.14 1081.41
  C 252.37 1062.53 251.94 1043.27 252.16 1024.53
  C 252.39 1005.11 252.37 989.14 252.46 971.43
  C 258.10 976.05 259.61 983.12 264.22 988.42
  Q 272.47 997.92 284.27 993.63
  C 288.00 992.27 290.44 990.12 294.80 987.11
  C 298.38 984.65 304.36 986.69 307.50 987.21
  C 316.19 988.64 325.29 985.12 332.99 982.92
  Q 342.65 980.16 344.65 969.83
  Q 346.00 962.91 346.34 957.99
  Q 347.11 946.99 347.96 935.93
  Z"
/>
<path fill="#143d54" d="
  M 399.47 953.60
  Q 401.96 973.78 411.68 992.21
  Q 429.06 1024.40 462.25 1040.78
  C 474.78 1046.53 487.07 1051.99 497.49 1061.29
  Q 500.59 1064.06 509.63 1074.53
  Q 514.70 1080.41 524.55 1089.04
  A 1.32 1.29 66.5 0 0 525.36 1089.37
  L 532.79 1089.76
  L 450.21 1089.78
  Q 406.55 1089.83 362.89 1089.80
  Q 355.63 1089.79 353.44 1088.42
  C 348.64 1085.41 347.99 1081.70 347.98 1075.60
  Q 347.94 1044.63 348.03 1013.89
  Q 351.73 1002.02 360.03 993.89
  Q 381.77 972.62 399.47 953.60
  Z"
/>
</svg>
